<svg width="71" height="62" viewBox="0 0 71 62" fill="none" xmlns="http://www.w3.org/2000/svg">
<circle cx="58.5" cy="49.5" r="12.5" fill="#CCADF9"/>
<g clip-path="url(#clip0_378_80)">
<path d="M41.9375 42.2109C41.2794 42.2109 40.7461 42.737 40.7461 43.3851C40.7461 44.0332 41.2794 44.5593 41.9375 44.5593C42.5951 44.5593 43.1289 44.0332 43.1289 43.3851C43.1289 42.737 42.5951 42.2109 41.9375 42.2109Z" fill="black"/>
<path d="M31.6914 21.546C31.6914 20.8974 31.1576 20.3718 30.5 20.3718C29.8424 20.3718 29.3086 20.8974 29.3086 21.546C29.3086 22.1941 29.8424 22.7202 30.5 22.7202C31.1576 22.7202 31.6914 22.1941 31.6914 21.546Z" fill="black"/>
<path d="M19.0625 44.5593C19.7201 44.5593 20.2539 44.0332 20.2539 43.3851C20.2539 42.737 19.7201 42.2109 19.0625 42.2109C18.4049 42.2109 17.8711 42.737 17.8711 43.3851C17.8711 44.0332 18.4049 44.5593 19.0625 44.5593Z" fill="black"/>
<path d="M60.2922 50.1389L53.8512 47.3186V21.5461C53.8512 21.081 53.5687 20.6503 53.1196 20.4623L31.6915 11.3794V2.75937C31.6915 2.11083 31.1577 1.58521 30.5001 1.58521C29.842 1.58521 29.3087 2.11083 29.3087 2.75937V11.3794L7.88056 20.4623C7.45473 20.6365 7.14896 21.0617 7.14896 21.5461V47.3186L0.707923 50.1389C0.106635 50.4026 -0.164224 51.0961 0.102912 51.6887C0.368186 52.2776 1.07 52.5501 1.67548 52.285L8.34782 49.3633L30.0296 58.5535C30.3162 58.675 30.6667 58.6824 30.971 58.5535L52.6523 49.3633L59.3247 52.285C59.9325 52.551 60.6329 52.2753 60.8972 51.6887C61.1644 51.0961 60.8935 50.4026 60.2922 50.1389ZM29.3087 13.936V16.8494C29.3087 17.4975 29.842 18.0236 30.5001 18.0236C31.1577 18.0236 31.6915 17.4975 31.6915 16.8494V13.936L49.6445 21.5461L30.5001 29.6611L11.3557 21.5461L29.3087 13.936ZM15.7969 44.8162C15.5293 44.2236 14.8252 43.9571 14.2243 44.2199L9.53131 46.2752V23.3289L29.3087 31.7123V55.6919L11.3142 48.0644L15.1919 46.3664C15.7932 46.1027 16.064 45.4087 15.7969 44.8162ZM31.6915 55.6919V31.7123L51.4684 23.3289V46.2752L46.7758 44.2204C46.174 43.9571 45.4704 44.2236 45.2032 44.8166C44.9361 45.4092 45.207 46.1027 45.8082 46.3664L49.6859 48.0644L31.6915 55.6919Z" fill="black"/>
</g>
<defs>
<clipPath id="clip0_378_80">
<rect width="61" height="60" fill="white"/>
</clipPath>
</defs>
</svg>
