<svg width="73" height="60" viewBox="0 0 73 60" fill="none" xmlns="http://www.w3.org/2000/svg">
<circle cx="60.5" cy="40.5" r="12.5" fill="#CCADF9"/>
<g clip-path="url(#clip0_333_1334)">
<path d="M20.8841 27.8663C20.3953 27.3776 19.6053 27.3776 19.1166 27.8663L12.8666 34.1163C12.3778 34.6051 12.3778 35.3951 12.8666 35.8838L19.1166 42.1338C19.3603 42.3776 19.6803 42.5001 20.0003 42.5001C20.3203 42.5001 20.6403 42.3776 20.8841 42.1338C21.3728 41.6451 21.3728 40.8551 20.8841 40.3663L15.5178 35.0001L20.8841 29.6338C21.3728 29.1451 21.3728 28.3551 20.8841 27.8663Z" fill="black"/>
<path d="M40.8841 27.8663C40.3953 27.3776 39.6053 27.3776 39.1166 27.8663C38.6278 28.3551 38.6278 29.1451 39.1166 29.6338L44.4828 35.0001L39.1166 40.3663C38.6278 40.8551 38.6278 41.6451 39.1166 42.1338C39.3603 42.3776 39.6803 42.5001 40.0003 42.5001C40.3203 42.5001 40.6403 42.3776 40.8841 42.1338L47.1341 35.8838C47.6228 35.3951 47.6228 34.6051 47.1341 34.1163L40.8841 27.8663Z" fill="black"/>
<path d="M34.3079 26.3811C33.6916 26.0711 32.9404 26.3224 32.6304 26.9399L25.1304 41.9399C24.8216 42.5574 25.0716 43.3086 25.6891 43.6174C25.8691 43.7061 26.0591 43.7486 26.2466 43.7486C26.7054 43.7486 27.1466 43.4961 27.3666 43.0574L34.8666 28.0574C35.1754 27.4399 34.9254 26.6899 34.3079 26.3811Z" fill="black"/>
<path d="M51.25 7.5H8.75C5.30375 7.5 2.5 10.3038 2.5 13.75V46.25C2.5 49.6963 5.30375 52.5 8.75 52.5H51.25C54.6963 52.5 57.5 49.6963 57.5 46.25V13.75C57.5 10.3038 54.6963 7.5 51.25 7.5ZM8.75 10H51.25C53.3175 10 55 11.6825 55 13.75V17.5H5V13.75C5 11.6825 6.6825 10 8.75 10ZM51.25 50H8.75C6.6825 50 5 48.3175 5 46.25V20H55V46.25C55 48.3175 53.3175 50 51.25 50Z" fill="black"/>
<path d="M8.75 15C9.44036 15 10 14.4404 10 13.75C10 13.0596 9.44036 12.5 8.75 12.5C8.05964 12.5 7.5 13.0596 7.5 13.75C7.5 14.4404 8.05964 15 8.75 15Z" fill="black"/>
<path d="M13.75 15C14.4404 15 15 14.4404 15 13.75C15 13.0596 14.4404 12.5 13.75 12.5C13.0596 12.5 12.5 13.0596 12.5 13.75C12.5 14.4404 13.0596 15 13.75 15Z" fill="black"/>
<path d="M18.75 15C19.4404 15 20 14.4404 20 13.75C20 13.0596 19.4404 12.5 18.75 12.5C18.0596 12.5 17.5 13.0596 17.5 13.75C17.5 14.4404 18.0596 15 18.75 15Z" fill="black"/>
<path d="M20.8841 27.8663C20.3953 27.3776 19.6053 27.3776 19.1166 27.8663L12.8666 34.1163C12.3778 34.6051 12.3778 35.3951 12.8666 35.8838L19.1166 42.1338C19.3603 42.3776 19.6803 42.5001 20.0003 42.5001C20.3203 42.5001 20.6403 42.3776 20.8841 42.1338C21.3728 41.6451 21.3728 40.8551 20.8841 40.3663L15.5178 35.0001L20.8841 29.6338C21.3728 29.1451 21.3728 28.3551 20.8841 27.8663Z" fill="black"/>
<path d="M40.8841 27.8663C40.3953 27.3776 39.6053 27.3776 39.1166 27.8663C38.6278 28.3551 38.6278 29.1451 39.1166 29.6338L44.4828 35.0001L39.1166 40.3663C38.6278 40.8551 38.6278 41.6451 39.1166 42.1338C39.3603 42.3776 39.6803 42.5001 40.0003 42.5001C40.3203 42.5001 40.6403 42.3776 40.8841 42.1338L47.1341 35.8838C47.6228 35.3951 47.6228 34.6051 47.1341 34.1163L40.8841 27.8663Z" fill="black"/>
<path d="M34.3079 26.3811C33.6916 26.0711 32.9404 26.3224 32.6304 26.9399L25.1304 41.9399C24.8216 42.5574 25.0716 43.3086 25.6891 43.6174C25.8691 43.7061 26.0591 43.7486 26.2466 43.7486C26.7054 43.7486 27.1466 43.4961 27.3666 43.0574L34.8666 28.0574C35.1754 27.4399 34.9254 26.6899 34.3079 26.3811Z" fill="black"/>
<path d="M51.25 7.5H8.75C5.30375 7.5 2.5 10.3038 2.5 13.75V46.25C2.5 49.6963 5.30375 52.5 8.75 52.5H51.25C54.6963 52.5 57.5 49.6963 57.5 46.25V13.75C57.5 10.3038 54.6963 7.5 51.25 7.5ZM8.75 10H51.25C53.3175 10 55 11.6825 55 13.75V17.5H5V13.75C5 11.6825 6.6825 10 8.75 10ZM51.25 50H8.75C6.6825 50 5 48.3175 5 46.25V20H55V46.25C55 48.3175 53.3175 50 51.25 50Z" fill="black"/>
<path d="M8.75 15C9.44036 15 10 14.4404 10 13.75C10 13.0596 9.44036 12.5 8.75 12.5C8.05964 12.5 7.5 13.0596 7.5 13.75C7.5 14.4404 8.05964 15 8.75 15Z" fill="black"/>
<path d="M13.75 15C14.4404 15 15 14.4404 15 13.75C15 13.0596 14.4404 12.5 13.75 12.5C13.0596 12.5 12.5 13.0596 12.5 13.75C12.5 14.4404 13.0596 15 13.75 15Z" fill="black"/>
<path d="M18.75 15C19.4404 15 20 14.4404 20 13.75C20 13.0596 19.4404 12.5 18.75 12.5C18.0596 12.5 17.5 13.0596 17.5 13.75C17.5 14.4404 18.0596 15 18.75 15Z" fill="black"/>
</g>
<defs>
<clipPath id="clip0_333_1334">
<rect width="60" height="60" fill="white"/>
</clipPath>
</defs>
</svg>
