<svg width="60" height="60" viewBox="0 0 60 60" fill="none" xmlns="http://www.w3.org/2000/svg">
<circle cx="44.5" cy="45.5" r="12.5" fill="#CCADF9"/>
<path d="M38.6829 19.0814C32.8477 10.4968 25.0543 5.93417 20.973 8.72978C20.5236 9.04626 20.133 9.43901 19.8191 9.89022C19.8191 9.92318 10.3708 29.0441 10.3708 29.0441L5.09604 32.6177C4.2863 33.1674 3.59278 33.8712 3.05512 34.689C2.51745 35.5067 2.14617 36.4224 1.96248 37.3837C1.7788 38.345 1.7863 39.3331 1.98457 40.2915C2.18284 41.2499 2.56799 42.1598 3.11802 42.9693L3.35538 43.3188C4.46717 44.9383 6.17262 46.0543 8.10184 46.4246C10.0311 46.7949 12.0285 46.3896 13.6609 45.2968L22.1334 57.7781C23.3796 59.3144 25.773 60.8441 28.7268 59.0441C29.2501 58.7048 29.6965 58.2596 30.0372 57.7372C30.3779 57.2148 30.6053 56.6268 30.7048 56.0111C30.8242 55.3987 30.8209 54.7687 30.6953 54.1576C30.5697 53.5465 30.3242 52.9663 29.973 52.4507L22.5092 41.4397C22.5092 41.4397 40.1532 40.0353 40.2191 40.0089C40.77 39.8936 41.2923 39.6694 41.7554 39.3496C43.8521 37.9254 44.6037 34.9386 43.8785 30.9364C43.2257 27.2507 41.373 23.077 38.6829 19.0814ZM5.27407 42.0199L5.0367 41.6704C4.65721 41.1118 4.39163 40.4837 4.25517 39.8223C4.1187 39.1608 4.11402 38.4789 4.24141 37.8157C4.36879 37.1524 4.62574 36.5208 4.99753 35.9569C5.36933 35.3931 5.84867 34.9081 6.40813 34.5298L10.9642 31.4309L16.9774 40.2858L12.4213 43.3847C11.8625 43.7647 11.2343 44.0308 10.5726 44.1679C9.91086 44.3049 9.22861 44.3103 8.56484 44.1835C7.90108 44.0568 7.26879 43.8004 6.70414 43.4292C6.13949 43.0579 5.65354 42.579 5.27407 42.0199ZM28.0741 53.7496C28.4344 54.2858 28.5674 54.943 28.4438 55.5771C28.3202 56.2112 27.9501 56.7704 27.4147 57.132C26.8775 57.4927 26.2192 57.6258 25.584 57.5022C24.9489 57.3787 24.3885 57.0084 24.0257 56.4726L15.5796 44.0309L18.9752 41.7232L19.8719 41.6507L28.0741 53.7496ZM19.1598 39.3891L12.6059 29.7364L18.8565 16.9913C19.4631 20.5715 21.2367 24.8243 24.0719 28.9979C26.907 33.1715 30.2037 36.3891 33.3026 38.2748L19.1598 39.3891ZM38.6103 37.8529C35.4587 37.6485 30.329 34.0946 25.984 27.6924C21.6389 21.2902 20.2279 15.2309 21.1971 12.2177C21.3722 11.6521 21.7215 11.1563 22.1951 10.8011C22.6688 10.4458 23.2425 10.2493 23.8345 10.2397C26.9598 10.2397 32.2807 13.8133 36.751 20.4001C39.2697 24.1056 41.1026 27.9825 41.6037 31.3715C42.5862 37.8529 38.6103 37.8529 38.6103 37.8529Z" fill="black"/>
<path d="M30.4419 19.3253C29.6342 19.1667 28.8031 19.1707 27.997 19.3371C27.1909 19.5035 26.4261 19.829 25.7474 20.2945C25.6222 20.3811 25.5154 20.4915 25.4329 20.6193C25.3505 20.7472 25.294 20.8901 25.2668 21.0398C25.2395 21.1895 25.242 21.3431 25.2741 21.4918C25.3063 21.6405 25.3674 21.7815 25.4539 21.9066C25.5405 22.0317 25.6509 22.1385 25.7788 22.221C25.9067 22.3034 26.0495 22.3599 26.1992 22.3872C26.3489 22.4144 26.5025 22.4119 26.6512 22.3798C26.8 22.3477 26.9409 22.2866 27.066 22.2C27.4959 21.9082 27.9791 21.7039 28.4879 21.5989C28.9968 21.4938 29.5213 21.49 30.0316 21.5876C30.542 21.6853 31.028 21.8825 31.4621 22.168C31.8962 22.4535 32.2698 22.8217 32.5616 23.2516C32.8534 23.6815 33.0577 24.1647 33.1628 24.6735C33.2678 25.1824 33.2716 25.7069 33.174 26.2172C33.0763 26.7276 32.8791 27.2136 32.5936 27.6477C32.3081 28.0818 31.9399 28.4554 31.51 28.7472C31.3073 28.8872 31.1547 29.0884 31.0746 29.3214C30.9944 29.5543 30.9909 29.8068 31.0646 30.0418C31.1383 30.2769 31.2853 30.4822 31.4841 30.6277C31.6829 30.7732 31.923 30.8513 32.1693 30.8505C32.4044 30.8549 32.6349 30.7858 32.8287 30.6527C33.8542 29.958 34.6505 28.9746 35.1166 27.8269C35.5827 26.6793 35.6977 25.4192 35.4471 24.2061C35.1964 22.9931 34.5914 21.8817 33.7085 21.0128C32.8257 20.1439 31.7049 19.5566 30.488 19.3253H30.4419Z" fill="black"/>
<path d="M40.1069 11.0572H40.219C40.5044 11.0571 40.7796 10.9512 40.9915 10.76C41.2034 10.5688 41.3369 10.3059 41.3663 10.022L42.2564 1.37148C42.2766 1.21852 42.266 1.06304 42.2251 0.914259C42.1842 0.765475 42.1139 0.626402 42.0183 0.50527C41.9227 0.384138 41.8038 0.283406 41.6686 0.209035C41.5335 0.134664 41.3847 0.0881644 41.2312 0.072287C41.0778 0.0564097 40.9226 0.0714773 40.7751 0.116598C40.6275 0.16172 40.4905 0.235978 40.3722 0.334979C40.2538 0.433981 40.1565 0.555714 40.0861 0.692978C40.0156 0.830242 39.9733 0.980247 39.9619 1.13412L39.0783 9.79126C39.047 10.0955 39.1377 10.3998 39.3306 10.6371C39.5235 10.8745 39.8027 11.0256 40.1069 11.0572Z" fill="black"/>
<path d="M55.0209 9.27701C54.8515 9.02163 54.5879 8.84364 54.2878 8.78187C53.9876 8.72011 53.6752 8.77959 53.4187 8.94734L45.3813 14.2221C45.1726 14.3599 45.0144 14.5618 44.9303 14.7973C44.8463 15.0329 44.8411 15.2894 44.9155 15.5281C44.9899 15.7669 45.1398 15.975 45.3428 16.1212C45.5457 16.2674 45.7906 16.3437 46.0407 16.3385C46.2739 16.3439 46.5035 16.2796 46.7 16.1539L54.7374 10.8792C54.9867 10.7038 55.1565 10.4368 55.2096 10.1366C55.2627 9.83638 55.1949 9.52735 55.0209 9.27701Z" fill="black"/>
<path d="M57.4809 23.3604L48.1315 21.6791C47.8298 21.6249 47.519 21.6927 47.2674 21.8677C47.0157 22.0427 46.8439 22.3104 46.7897 22.6121C46.7355 22.9137 46.8033 23.2246 46.9783 23.4762C47.1533 23.7278 47.421 23.8996 47.7227 23.9538L57.0655 25.6352H57.2699C57.5639 25.6438 57.8501 25.5398 58.07 25.3444C58.2899 25.1491 58.4268 24.8771 58.4529 24.5842C58.479 24.2912 58.3923 23.9994 58.2104 23.7682C58.0285 23.5371 57.7652 23.3842 57.4743 23.3407L57.4809 23.3604Z" fill="black"/>
</svg>
