<svg width="68" height="60" viewBox="0 0 68 60" fill="none" xmlns="http://www.w3.org/2000/svg">
<circle cx="55.5" cy="37.5" r="12.5" fill="#CCADF9"/>
<path d="M19.666 29.1563C25.8699 25.8024 29.0293 16.9653 29.0598 16.8774C29.1992 16.4778 29.5766 16.2095 29.9996 16.2095C30.4227 16.2095 30.8 16.4767 30.9395 16.8774C30.9699 16.9665 34.1153 25.7954 40.3332 29.1563C40.5735 29.2864 40.7492 29.5091 40.8207 29.7728C40.8922 30.0364 40.8524 30.3177 40.7106 30.5509C39.3008 32.8665 35.6914 39.4302 35.9211 41.9638C36.2176 45.2298 38.4254 52.1263 38.4477 52.1954C38.5449 52.4989 38.4922 52.8294 38.3047 53.0872C38.1172 53.3438 37.8184 53.4962 37.4996 53.4962H22.4996C22.1809 53.4962 21.8821 53.3438 21.6946 53.0872C21.5071 52.8306 21.4543 52.4989 21.5516 52.1954C21.5739 52.1263 23.7817 45.2298 24.0781 41.9638C24.3078 39.4325 20.6985 32.8665 19.2887 30.5509C19.1469 30.3177 19.1071 30.0364 19.1785 29.7728C19.25 29.5091 19.4258 29.2864 19.666 29.1563ZM23.852 51.504H36.1473C35.5461 49.52 34.4481 45.7056 34.0496 43.0501H25.9496C25.5512 45.7044 24.4543 49.52 23.852 51.504ZM26.0293 41.0579H33.9699C34.3696 37.7649 37.2512 32.5208 38.4934 30.3845C35.0141 28.1696 32.5367 24.5837 30.9957 21.7606V33.5157C30.9957 34.0653 30.5492 34.5118 29.9996 34.5118C29.45 34.5118 29.0035 34.0653 29.0035 33.5157V21.7595C27.4614 24.5837 24.984 28.1685 21.5059 30.3833C22.7481 32.5208 25.6297 37.7638 26.0293 41.0579Z" fill="black"/>
<path d="M4.74609 31.773C4.74609 30.5449 5.55469 29.502 6.66797 29.148C6.66211 29.0812 6.66328 29.0121 6.67148 28.9418C7.2914 23.7539 9.67617 18.8531 13.3875 15.143C15.4535 13.077 17.8898 11.4223 20.5395 10.2539H12.068C12.0492 10.2539 12.0316 10.2516 12.0141 10.2516V11.0156C12.0141 11.5652 11.5676 12.0117 11.018 12.0117H7.50234C6.95273 12.0117 6.50625 11.5652 6.50625 11.0156V7.5C6.50625 6.95039 6.95273 6.50391 7.50234 6.50391H11.018C11.5676 6.50391 12.0141 6.95039 12.0141 7.5V8.26406C12.0316 8.26289 12.0504 8.26172 12.068 8.26172H27.3047C27.3469 8.26172 27.3891 8.26523 27.4301 8.26992C27.8285 7.2375 28.8293 6.50391 30 6.50391C31.173 6.50391 32.1773 7.24219 32.5734 8.27812C32.6297 8.26875 32.6871 8.26172 32.7457 8.26172H47.9344C47.9531 8.26172 47.9707 8.26406 47.9883 8.26406V7.5C47.9883 6.95039 48.4348 6.50391 48.9844 6.50391H52.5C53.0496 6.50391 53.4961 6.95039 53.4961 7.5V11.0156C53.4961 11.5652 53.0496 12.0117 52.5 12.0117H48.9844C48.4348 12.0117 47.9883 11.5652 47.9883 11.0156V10.2516C47.9707 10.2527 47.952 10.2539 47.9344 10.2539H39.4629C42.1254 11.4281 44.5734 13.0945 46.6477 15.177C50.3648 18.9094 52.7426 23.8336 53.3414 29.0449C53.3461 29.0813 53.3473 29.1164 53.3473 29.1527C54.4523 29.5113 55.2539 30.5496 55.2539 31.773C55.2539 33.0035 54.443 34.0477 53.3273 34.4004C53.3344 34.4695 53.3332 34.541 53.325 34.6137C52.698 39.7863 50.3156 44.673 46.6148 48.3727C46.4203 48.5672 46.166 48.6645 45.9105 48.6645C45.6551 48.6645 45.4008 48.5672 45.2063 48.3727C44.8172 47.9836 44.8172 47.3531 45.2063 46.9641C48.593 43.5773 50.7738 39.1066 51.3469 34.3734C51.3504 34.3418 51.3563 34.3102 51.3633 34.2797C50.4105 33.8461 49.7473 32.8852 49.7473 31.773C49.7473 30.6609 50.4105 29.7012 51.3621 29.2664C50.2172 19.3441 42.4922 11.5887 32.5746 10.4063C32.5512 10.4039 32.5301 10.3992 32.5066 10.3945C32.073 11.3473 31.1121 12.0117 30 12.0117C28.8867 12.0117 27.927 11.3473 27.4922 10.3945C27.4688 10.3992 27.4465 10.4039 27.4219 10.4063C17.5477 11.5852 9.82851 19.3043 8.64844 29.1773C8.64492 29.2066 8.64023 29.2348 8.63437 29.2641C9.58828 29.6977 10.2539 30.6586 10.2539 31.7719C10.2539 32.884 9.59063 33.8438 8.63906 34.2785C8.64258 34.2984 8.64727 34.3172 8.64961 34.3371C9.2168 39.0832 11.3988 43.5668 14.7949 46.9629C15.184 47.352 15.184 47.9824 14.7949 48.3715C14.6004 48.566 14.3461 48.6633 14.0906 48.6633C13.8352 48.6633 13.5809 48.566 13.3863 48.3715C9.67617 44.6613 7.2914 39.7617 6.67148 34.5738C6.66445 34.5141 6.66328 34.4555 6.6668 34.3969C5.55469 34.043 4.74609 33.0012 4.74609 31.773ZM10.0195 8.49609H8.49609V10.0195H10.0195V8.49609ZM49.9805 10.0195H51.5039V8.49609H49.9805V10.0195ZM52.5 32.5348C52.9195 32.5348 53.2617 32.1926 53.2617 31.773C53.2617 31.3535 52.9195 31.0113 52.5 31.0113C52.0805 31.0113 51.7383 31.3535 51.7383 31.773C51.7383 32.1926 52.0805 32.5348 52.5 32.5348ZM30 10.0195C30.4195 10.0195 30.7617 9.67734 30.7617 9.25781C30.7617 8.83828 30.4195 8.49609 30 8.49609C29.5805 8.49609 29.2383 8.83828 29.2383 9.25781C29.2383 9.67734 29.5805 10.0195 30 10.0195ZM7.5 32.5348C7.91953 32.5348 8.26172 32.1926 8.26172 31.773C8.26172 31.3535 7.91953 31.0113 7.5 31.0113C7.08047 31.0113 6.73828 31.3535 6.73828 31.773C6.73828 32.1926 7.08047 32.5348 7.5 32.5348Z" fill="black"/>
</svg>
