<svg width="60" height="60" viewBox="0 0 60 60" fill="none" xmlns="http://www.w3.org/2000/svg">
<circle cx="42.5" cy="47.5" r="12.5" fill="#CCADF9"/>
<path d="M60 18.2096C60 16.7093 59.4157 15.2988 58.3546 14.2377C56.2167 12.1013 52.7706 12.0516 50.5706 14.0875C49.3704 13.4062 47.8145 13.5758 46.7925 14.5978C45.7719 15.6184 45.6014 17.1715 46.2793 18.3709L37.4858 27.1644V14.012H43.1149C43.6004 14.012 43.9938 13.6186 43.9938 13.1331C43.9938 12.6476 43.6004 12.2542 43.1149 12.2542H37.4858V7.76367C37.4858 7.27816 37.0924 6.88477 36.6069 6.88477C36.1214 6.88477 35.728 7.27816 35.728 7.76367V12.2542H14.8847C14.3993 12.2542 14.0058 12.6476 14.0058 13.1331C14.0058 13.6186 14.3993 14.012 14.8847 14.012H18.7201L8.29617 20.0246C8.28562 20.0307 8.27578 20.0377 8.26535 20.0439V14.012H11.3689C11.8543 14.012 12.2479 13.6186 12.2479 13.1331C12.2479 12.6476 11.8543 12.2542 11.3689 12.2542H8.26547V7.76402C8.26547 7.27852 7.87195 6.88512 7.38656 6.88512C6.90117 6.88512 6.50766 7.27852 6.50766 7.76402V12.2542H0.878906C0.393516 12.2542 0 12.6476 0 13.1331C0 13.6186 0.393516 14.012 0.878906 14.012H6.50766V45.9878H0.878906C0.393516 45.9878 0 46.3812 0 46.8667C0 47.3522 0.393516 47.7456 0.878906 47.7456H6.50766V52.2357C6.50766 52.7213 6.90117 53.1147 7.38656 53.1147C7.87195 53.1147 8.26547 52.7213 8.26547 52.2357V47.7456H30.0994C30.5848 47.7456 30.9783 47.3522 30.9783 46.8667C30.9783 46.3812 30.5849 45.9878 30.0994 45.9878H25.2737L28.9806 43.8491C29.3617 44.1749 29.8342 44.3482 30.32 44.3482C30.5553 44.3482 30.7935 44.3079 31.0256 44.2252L35.728 42.5496V45.9878H33.615C33.1295 45.9878 32.7361 46.3812 32.7361 46.8667C32.7361 47.3522 33.1295 47.7456 33.615 47.7456H35.728V52.2361C35.728 52.7216 36.1214 53.115 36.6069 53.115C37.0924 53.115 37.4858 52.7216 37.4858 52.2361V47.7456H43.1149C43.6004 47.7456 43.9938 47.3522 43.9938 46.8667C43.9938 46.3812 43.6004 45.9878 43.1149 45.9878H37.4858V41.9232L39.0493 41.3661C39.0497 41.366 39.05 41.3658 39.0505 41.3657C39.079 41.3555 39.1069 41.3436 39.1341 41.3306C39.1405 41.3275 39.1468 41.3239 39.1532 41.3207C39.173 41.3106 39.1924 41.2998 39.2114 41.2882C39.2198 41.2832 39.228 41.2779 39.2363 41.2725C39.2541 41.2608 39.2713 41.2485 39.2882 41.2355C39.2948 41.2303 39.3018 41.2255 39.3084 41.2201C39.3311 41.2017 39.353 41.1823 39.3737 41.1616C39.3744 41.1609 39.3751 41.1605 39.3758 41.1598L54.222 26.3136C54.7007 26.5842 55.2355 26.7203 55.7706 26.7203C56.5761 26.7203 57.3818 26.4137 57.995 25.8004C59.017 24.7782 59.1866 23.2223 58.5054 22.0221C59.4703 20.9817 60 19.6368 60 18.2096ZM57.1118 15.4808C57.8408 16.2097 58.2422 17.1788 58.2422 18.2095C58.2422 19.1288 57.9223 19.998 57.336 20.6923L51.9007 15.257C53.4152 13.9826 55.6868 14.0565 57.1118 15.4808ZM33.752 41.3876L31.2054 38.841L32.7045 34.6336C33.4799 34.5531 34.0305 34.6542 34.3098 34.9334C34.6454 35.269 34.7248 35.9954 34.5393 37.0338C34.5383 37.0388 34.5383 37.0437 34.5375 37.0487C34.5334 37.0745 34.5302 37.1005 34.5284 37.1265C34.5277 37.137 34.5272 37.1474 34.5268 37.1578C34.526 37.1807 34.5262 37.2035 34.5272 37.2264C34.5511 37.7688 35.0474 38.1454 35.5588 38.0536C36.5977 37.868 37.324 37.9475 37.6595 38.2832C37.9387 38.5625 38.0399 39.1132 37.9594 39.8884L33.752 41.3876ZM38.9026 37.0403C38.5431 36.6807 38.0829 36.4368 37.5278 36.3083L45.3664 28.4697C45.7097 28.1263 45.7097 27.5699 45.3664 27.2266C45.0231 26.8835 44.4667 26.8835 44.1234 27.2266L36.285 35.0651C36.1566 34.5096 35.9126 34.0501 35.5529 33.6905C35.1932 33.3308 34.7325 33.0879 34.1769 32.9596L47.441 19.6954L49.5478 21.8021L46.9929 24.3571C46.6497 24.7004 46.6497 25.2568 46.9929 25.6001C47.3364 25.9433 47.8927 25.9432 48.2359 25.6001L50.7908 23.0452L52.8976 25.152L39.6334 38.4162C39.5051 37.8606 39.2623 37.3999 38.9026 37.0403ZM35.728 14.012V20.0501C35.7198 20.0453 35.7121 20.0398 35.7038 20.035L25.2811 14.012H35.728ZM8.26875 23.1128C8.26957 22.4698 8.61738 21.8695 9.17555 21.5468L21.0994 14.6691C21.657 14.3474 22.3493 14.3479 22.9064 14.67L34.824 21.5569C35.3817 21.8795 35.7281 22.4797 35.7281 23.1234V28.9223L31.853 32.7975V26.3719C31.8534 25.1017 31.1714 23.9182 30.0729 23.2833L23.7839 19.6493C22.6847 19.0138 21.3183 19.0134 20.2184 19.6478L13.9266 23.2772C12.8258 23.9121 12.1418 25.095 12.1412 26.3646V33.6279C12.1407 34.8981 12.8228 36.0816 13.9213 36.7164L20.2103 40.3505C20.7604 40.6685 21.3772 40.8274 21.9942 40.8274C22.6102 40.8274 23.2263 40.6688 23.7758 40.3519L30.0676 36.7226C30.0793 36.7159 30.0902 36.7082 30.1018 36.7014L28.3682 41.5672C28.2889 41.7896 28.2498 42.0176 28.2465 42.2434L22.8959 45.3304C22.3373 45.6519 21.6443 45.652 21.0872 45.3298L9.16934 38.443C8.61305 38.1212 8.26805 37.5214 8.26875 36.8764V23.1128ZM30.095 26.3715V33.6348C30.0948 34.278 29.7477 34.8777 29.1892 35.1998L22.8974 38.8293C22.3397 39.1508 21.6471 39.1507 21.0898 38.8284L14.8008 35.1943C14.2441 34.8727 13.8987 34.2727 13.8989 33.6281V26.3648C13.8991 25.7216 14.2463 25.122 14.8048 24.7998L21.0966 21.1704C21.3752 21.0097 21.6874 20.9293 21.9998 20.9293C22.3126 20.9293 22.6254 21.01 22.9043 21.1711L29.1933 24.8051C29.7497 25.1269 30.0953 25.7269 30.095 26.3715ZM8.26547 45.9878V39.9499C8.27367 39.9547 8.28129 39.9601 8.28949 39.9649L18.712 45.9879H8.26547V45.9878ZM30.4357 42.5693C30.2691 42.6286 30.1533 42.5474 30.0994 42.4936C30.0456 42.4397 29.9641 42.3245 30.0237 42.1574L30.5522 40.6739L31.9189 42.0407L30.4357 42.5693ZM56.752 24.5575C56.211 25.0988 55.3302 25.0988 54.7891 24.5575L54.7622 24.5305L48.0626 17.8309L48.0356 17.8039C47.4945 17.2628 47.4945 16.3822 48.0356 15.8411C48.3062 15.5704 48.6616 15.4351 49.0171 15.4351C49.3725 15.4351 49.7279 15.5704 49.9985 15.8411L56.7521 22.5947C57.2932 23.1357 57.2932 24.0162 56.752 24.5575Z" fill="black"/>
</svg>
