<svg width="18" height="20" viewBox="0 0 18 20" fill="none" xmlns="http://www.w3.org/2000/svg">
<path d="M7.29357 1.53296C7.54449 0.0936767 9.61295 0.10125 9.85488 1.54234C10.0308 2.59022 11.322 2.9956 12.0652 2.23674C13.0791 1.20148 14.773 2.3496 14.1849 3.67402L14.0377 4.0055C13.6029 4.98468 14.4157 6.0607 15.4771 5.91332C16.9645 5.70676 17.6604 7.69729 16.3636 8.45402L16.1654 8.56965C15.2331 9.11374 15.2289 10.4596 16.1578 11.0105L16.3552 11.1276C17.6473 11.8938 16.939 13.8792 15.4529 13.6618C14.3925 13.5066 13.573 14.5767 14.0017 15.559L14.1468 15.8916C14.7267 17.2203 13.0256 18.3559 12.0182 17.3133C11.2798 16.549 9.98603 16.9449 9.80357 17.9915C9.55265 19.4308 7.48419 19.4232 7.24226 17.9821C7.06634 16.9342 5.7751 16.5289 5.03192 17.2877C4.01805 18.323 2.3241 17.1748 2.91221 15.8504L3.05941 15.5189C3.49422 14.5398 2.68141 13.4637 1.62008 13.6111C0.132688 13.8177 -0.563218 11.8272 0.733557 11.0704L0.931702 10.9548C1.86408 10.4107 1.86827 9.06481 0.939315 8.5139L0.741896 8.39683C-0.550128 7.63061 0.158181 5.64523 1.64425 5.86267C2.70463 6.01782 3.52414 4.94778 3.09545 3.96544L2.95033 3.63289C2.37048 2.30419 4.07156 1.1685 5.07894 2.21116C5.81738 2.97544 7.11112 2.57953 7.29357 1.53296Z" fill="black"/>
</svg>
