<svg width="131" height="96" viewBox="0 0 131 96" fill="none" xmlns="http://www.w3.org/2000/svg">
<path d="M130.242 51.9928L98.7113 51.9928C99.2503 29.013 105.768 26.4045 113.954 25.6599L117.111 25.2686L117.111 5.98872e-05L113.472 0.195059C102.783 0.796468 90.9645 2.72348 83.0798 12.4571C76.1681 20.9898 73.121 34.93 73.121 56.3294L73.121 95.9827L130.242 95.9827L130.242 51.9928Z" fill="#A371E7" fill-opacity="0.34"/>
<path d="M57.1211 95.9827L57.1211 51.9928L26.0111 51.9928C26.5501 29.013 32.8571 26.4045 41.0431 25.6599L43.9898 25.2686L43.9898 5.98872e-05L40.5612 0.195059C29.8717 0.796468 17.9478 2.72348 10.0631 12.4571C3.15209 20.9898 -7.09566e-05 34.93 -7.28273e-05 56.3294L-7.62939e-05 95.9827L57.1211 95.9827Z" fill="#A371E7" fill-opacity="0.34"/>
</svg>
