<svg width="62" height="61" viewBox="0 0 62 61" fill="none" xmlns="http://www.w3.org/2000/svg">
<g clip-path="url(#clip0_333_1475)">
<path d="M0.21875 28.6221H15.014C14.7611 39.405 11.7028 40.629 7.86162 40.9783L6.38037 41.1619V53.0187L8.08775 52.9272C13.1036 52.645 18.6491 51.7408 22.3488 47.1735C25.592 43.1697 27.0218 36.6285 27.0218 26.5873V7.98071H0.21875V28.6221Z" fill="#FFFFFE" fill-opacity="0.2"/>
<path d="M34.416 7.98071V28.6221H49.0138C48.7609 39.405 45.8015 40.629 41.9603 40.9783L40.5776 41.1619V53.0187L42.1864 52.9272C47.2023 52.645 52.7973 51.7408 56.4971 47.1735C59.74 43.1697 61.219 36.6285 61.219 26.5873V7.98071H34.416Z" fill="#FFFFFE" fill-opacity="0.2"/>
</g>
<defs>
<clipPath id="clip0_333_1475">
<rect width="61" height="61" fill="white" transform="translate(0.21875)"/>
</clipPath>
</defs>
</svg>
