<svg width="72" height="60" viewBox="0 0 72 60" fill="none" xmlns="http://www.w3.org/2000/svg">
<circle cx="59.5" cy="38.5" r="12.5" fill="#CCADF9"/>
<path d="M53.4375 4.6875H6.5625C3.975 4.6875 1.875 6.7875 1.875 9.375V41.25C1.875 43.8375 3.975 45.9375 6.5625 45.9375H21.7594L19.05 51.2344C18.6094 52.1063 18.6469 53.1187 19.1531 53.9531C19.6781 54.8062 20.5875 55.3125 21.6 55.3125H38.3906C39.4031 55.3125 40.3125 54.8062 40.8375 53.9531C41.3438 53.1187 41.3906 52.1063 40.9406 51.2344L38.2312 45.9375H53.4281C56.0156 45.9375 58.1156 43.8375 58.1156 41.25V9.375C58.1156 6.7875 56.0156 4.6875 53.4281 4.6875H53.4375ZM56.25 9.375V38.4375H34.6875V6.5625H53.4375C54.9844 6.5625 56.25 7.82812 56.25 9.375ZM6.5625 6.5625H32.8125V38.4375H3.75V9.375C3.75 7.82812 5.01562 6.5625 6.5625 6.5625ZM39.2719 52.0875C39.4781 52.5 39.3187 52.8469 39.2344 52.9781C39.15 53.1187 38.8969 53.4375 38.3906 53.4375H21.6C21.0938 53.4375 20.8406 53.1094 20.7562 52.9781C20.6812 52.8469 20.5125 52.5 20.7188 52.0875L23.8594 45.9375H36.1219L39.2625 52.0875H39.2719ZM56.25 41.25C56.25 42.7969 54.9844 44.0625 53.4375 44.0625H6.5625C5.01562 44.0625 3.75 42.7969 3.75 41.25V40.3125H56.25V41.25Z" fill="black"/>
<path d="M8.4375 22.5H29.0625C30.0938 22.5 30.9375 21.6562 30.9375 20.625V11.25C30.9375 10.2188 30.0938 9.375 29.0625 9.375H8.4375C7.40625 9.375 6.5625 10.2188 6.5625 11.25V20.625C6.5625 21.6562 7.40625 22.5 8.4375 22.5ZM8.4375 11.25H29.0625V20.625H8.4375V11.25Z" fill="black"/>
<path d="M8.4375 35.625H15.9375C16.9688 35.625 17.8125 34.7812 17.8125 33.75V26.25C17.8125 25.2188 16.9688 24.375 15.9375 24.375H8.4375C7.40625 24.375 6.5625 25.2188 6.5625 26.25V33.75C6.5625 34.7812 7.40625 35.625 8.4375 35.625ZM8.4375 26.25H15.9375V33.75H8.4375V26.25Z" fill="black"/>
<path d="M29.0625 24.375H21.5625C20.5312 24.375 19.6875 25.2188 19.6875 26.25V33.75C19.6875 34.7812 20.5312 35.625 21.5625 35.625H29.0625C30.0938 35.625 30.9375 34.7812 30.9375 33.75V26.25C30.9375 25.2188 30.0938 24.375 29.0625 24.375ZM21.5625 33.75V26.25H29.0625V33.75H21.5625Z" fill="black"/>
<path d="M52.5 33.75H38.4375C37.9219 33.75 37.5 34.1719 37.5 34.6875C37.5 35.2031 37.9219 35.625 38.4375 35.625H52.5C53.0156 35.625 53.4375 35.2031 53.4375 34.6875C53.4375 34.1719 53.0156 33.75 52.5 33.75Z" fill="black"/>
<path d="M52.5 29.0625H38.4375C37.9219 29.0625 37.5 29.4844 37.5 30C37.5 30.5156 37.9219 30.9375 38.4375 30.9375H52.5C53.0156 30.9375 53.4375 30.5156 53.4375 30C53.4375 29.4844 53.0156 29.0625 52.5 29.0625Z" fill="black"/>
<path d="M52.5 24.375H38.4375C37.9219 24.375 37.5 24.7969 37.5 25.3125C37.5 25.8281 37.9219 26.25 38.4375 26.25H52.5C53.0156 26.25 53.4375 25.8281 53.4375 25.3125C53.4375 24.7969 53.0156 24.375 52.5 24.375Z" fill="black"/>
<path d="M49.126 19.5C49.2947 19.6218 49.4916 19.6875 49.6885 19.6875C49.9697 19.6875 50.2509 19.5562 50.4384 19.3125L53.2509 15.5625C53.5041 15.225 53.5041 14.775 53.2509 14.4375L50.4384 10.6875C50.1291 10.275 49.5385 10.1906 49.126 10.5C48.7135 10.8094 48.6291 11.4 48.9385 11.8125L51.3291 15L48.9385 18.1875C48.6291 18.6 48.7135 19.1906 49.126 19.5Z" fill="black"/>
<path d="M36.7504 15.5625L39.5629 19.3125C39.7504 19.5562 40.0316 19.6875 40.3129 19.6875C40.5098 19.6875 40.7066 19.6218 40.8754 19.5C41.2879 19.1906 41.3723 18.6 41.0629 18.1875L38.6723 15L41.0629 11.8125C41.3723 11.4 41.2879 10.8094 40.8754 10.5C40.4629 10.1906 39.8723 10.275 39.5629 10.6875L36.7504 14.4375C36.4973 14.775 36.4973 15.225 36.7504 15.5625Z" fill="black"/>
<path d="M43.8384 19.6595C43.9134 19.6782 43.9884 19.6876 44.0634 19.6876C44.4853 19.6876 44.8697 19.4064 44.9728 18.9751L46.8478 11.4751C46.9697 10.9689 46.6697 10.4626 46.1634 10.3407C45.6572 10.2095 45.1509 10.5189 45.029 11.0251L43.154 18.5251C43.0322 19.0314 43.3322 19.5376 43.8384 19.6595Z" fill="black"/>
</svg>
